<svg xmlns="http://www.w3.org/2000/svg" width="41" height="64" fill="none"><path fill="#484a51" d="M22.12 17.365C12.45 26.321 0 31.891 0 31.891s12.45 4.786 22.12 15.18S33 64 33 64s0-9.065-3.505-14.962S10.153 31.89 10.153 31.89s15.835-12.014 19.34-15.618C33 12.669 33 0 33 0s-1.209 8.41-10.88 17.365"/><path fill="#484a51" d="M33.747 21.939C27.3 28.096 19 31.925 19 31.925s8.3 3.29 14.747 10.437S41 54 41 54s0-6.232-2.337-10.287-12.894-11.788-12.894-11.788 10.557-8.26 12.894-10.737S41 10 41 10s-.806 5.782-7.253 11.939"/></svg>