<svg width="41" height="64" fill="none" xmlns="http://www.w3.org/2000/svg"><path d="M22.1209 17.3652C12.4505 26.3208 0 31.8908 0 31.8908s12.4505 4.7865 22.1209 15.1809C31.7912 57.4661 33 64 33 64s0-9.0648-3.5055-14.9625c-3.5055-5.8976-19.3407-17.1467-19.3407-17.1467S25.989 19.8771 29.4945 16.273C33 12.6689 33 0 33 0s-1.2088 8.40956-10.8791 17.3652Z" fill="#020111"/><path d="M33.7473 21.9386C27.3004 28.0956 19 31.9249 19 31.9249s8.3004 3.2907 14.7473 10.4369C40.1941 49.5079 41 54 41 54s0-6.2321-2.337-10.2867-12.8938-11.7884-12.8938-11.7884S36.326 23.6655 38.663 21.1877C41 18.7099 41 10 41 10s-.8059 5.7816-7.2527 11.9386Z" fill="#020111"/></svg>