<svg width="858" height="271" fill="none" xmlns="http://www.w3.org/2000/svg"><path d="M155.073 238.67c.927-.215 1.723-.411 2.389-.582.367.067.776.14 1.225.221 2.236.4 5.464.968 9.448 1.644 7.966 1.352 18.974 3.139 31.143 4.875 24.043 3.432 53.596 6.82 72.9 5.962 18.394-.817 40.754-2.325 58.462-3.625 8.866-.65 16.587-1.25 22.093-1.687 2.516-.199 4.57-.365 6.06-.486.568.261 1.216.552 1.944.866 2.918 1.258 7.113 2.891 12.44 4.51 10.651 3.237 25.884 6.432 44.523 6.432 20.171 0 36.379-1.968 47.631-3.964 5.626-.998 10.017-2.004 13.047-2.775.896-.228 1.672-.435 2.327-.616.12.022.244.045.373.068 1.738.32 4.233.776 7.268 1.323 6.066 1.094 14.301 2.553 22.958 4.014 8.646 1.459 17.766 2.928 25.589 4.036 7.556 1.069 14.639 1.914 18.774 1.914 35.455 0 59.04-2.532 73.961-5.15 7.465-1.31 12.778-2.645 16.335-3.702.27-.08.531-.158.781-.235 2.361 1.116 5.578 2.412 9.788 3.669 9.424 2.814 23.773 5.418 44.601 5.418 20.827 0 35.177-2.604 44.601-5.418 3.591-1.072 6.459-2.173 8.69-3.166 1.794.906 4.003 1.917 6.603 2.917 7.463 2.871 18.179 5.667 31.584 5.667 12.653 0 24.079-1.655 33.558-8.004 9.628-6.449 15.601-16.607 19.938-29.893 5.81-17.799-3.99-31.659-12.402-39.573-4.346-4.089-8.895-7.199-12.289-9.266-.406-.247-.797-.48-1.172-.7-.33-1.565-.79-3.376-1.43-5.332-1.954-5.972-5.814-13.963-13.481-20.059-11.923-9.479-23.464-12.76-32.325-13.498-2.484-.207-4.733-.213-6.699-.11-.735-1.187-1.596-2.463-2.599-3.799-4.598-6.123-12.1-13.376-23.879-18.838-12.61-5.848-26.442-5.641-36.323-4.366-4.143.535-7.805 1.286-10.695 1.989-.261-.283-.534-.572-.818-.867-3.662-3.798-9.218-8.4956-17.057-12.5612-7.49-3.8849-13.898-6.0233-18.576-7.1969-.645-.1618-1.257-.3053-1.834-.4324-.999-2.0683-2.302-4.6333-3.866-7.4334-3.757-6.7239-9.492-15.6597-16.695-22.0436-12.667-11.2275-25.494-15.8097-35.352-17.4983-4.897-.8388-9.028-.9597-12.019-.856-.273.0094-.537.0208-.791.0336-.223-.1459-.457-.2972-.7-.4534-2.4-1.5414-5.799-3.5923-9.834-5.6505-7.787-3.9715-19.124-8.5918-30.601-8.5918-9.769 0-18.904 1.0713-25.544 2.123-1.98.3137-3.753.6279-5.272.9159-.714-.6481-1.515-1.332-2.413-2.0471-4.872-3.8827-12.602-8.7006-24.789-13.7344-15.457-6.3845-31.389-1.5603-41.931 3.3727-5.491 2.5695-10.123 5.4471-13.373 7.6688-.836.5712-1.587 1.1036-2.245 1.5819-2.321.0136-5.479.179-9.261.7411-7.833 1.1643-18.377 4.0374-29.653 10.8031-12.111 7.267-19.433 14.1379-23.84 19.6271-.78.9713-1.466 1.8963-2.069 2.7687-3.063-.2454-6.975-.4476-11.432-.4259-10.575.0514-24.885 1.3616-38.3 6.8495-13.57 5.5512-24.335 14.8939-31.531 22.4777-2.419 2.5502-4.488 4.9572-6.176 7.0418-3.09-1.3291-6.961-2.7559-11.473-3.9376-11.957-3.1315-28.645-4.5896-47.045 2.3104-17.345 6.5042-28.994 15.0142-36.42 22.1552-2.576 2.477-4.633 4.778-6.236 6.758-1.508-.279-3.221-.537-5.142-.743-8.085-.866-19.753-.799-35.217 2.4-17.187 3.556-31.105 14.163-40.337 23.113-4.7028 4.56-8.4096 8.904-10.9516 12.121-.2277.288-.4465.568-.6561.838-.5293-.013-1.0903-.025-1.6806-.035-4.3891-.074-10.4615-.026-17.1763.471-12.767.944-30.331 3.643-42.0669 12.207-8.9456 6.528-13.53108 15.62-12.222 25.765 1.1958 9.267 7.0782 17.391 14.233 23.711C38.9061 235.467 62.8556 244.8 88.2791 244.8c23.7459 0 41.4349-1.777 53.3139-3.594 5.938-.908 10.421-1.826 13.48-2.536Z" fill="#5A6082" stroke="#C3C3C3" stroke-width="20"/></svg>