<svg width="425" height="178" fill="none" xmlns="http://www.w3.org/2000/svg"><path d="M62.492 116.465c4.4347-.97 8.4476-1.61 11.82-2.032.0686-.664.1633-1.345.2889-2.04 1.639-9.069 8.038-17.9048 21.8594-22.7261 6.2187-2.1694 11.5127-3.3686 16.0477-3.7534-.088-1.9889-.114-4.1032-.048-6.2974.345-11.4416 3.325-27.7506 16.735-37.9629 11.167-8.5038 21.463-11.7898 29.37-12.7759 2.548-.3178 4.813-.3925 6.741-.3394 1.81-2.1074 4.258-4.6863 7.278-7.2382 6.844-5.783 17.808-12.38648 31.565-11.1504 12.914 1.1604 21.897 7.3872 27.502 13.1714.256.2638.505.5269.747.789 1.064-.739 2.217-1.4745 3.457-2.1832 8.549-4.8853 21.099-8.3534 36.503-3.3238 13.87 4.5287 21.675 11.5797 24.345 20.164 2.112.0143 4.435.1289 6.905.4034 10.583 1.1759 24.443 5.3764 35.579 17.7493 10.428 11.5872 15.515 24.7491 18.018 34.7643.798 3.1904 1.345 6.106 1.72 8.6123.968.094 1.996.199 3.075.317 6.756.738 15.757 2 24.156 4.107 4.201 1.053 8.46 2.369 12.309 4.034 3.736 1.617 7.724 3.832 10.828 6.979 3.289 3.335 5.959 8.173 5.429 14.223-.492 5.614-3.597 10.329-7.309 14.135-14.723 15.095-37.389 17.571-53.851 17.205-8.589-.191-16.34-1.18-21.927-2.112-2.805-.468-5.092-.927-6.701-1.274-.161-.035-.316-.069-.464-.101-.922.158-2.129.364-3.559.602-3.424.569-8.145 1.33-13.329 2.092-10.108 1.485-22.817 3.106-30.828 3.106-8.253 0-23.338-2.458-35.419-4.663-6.246-1.139-12.03-2.277-16.248-3.129-1.411-.285-2.648-.538-3.672-.75-.109.048-.222.096-.336.145-2.187.933-5.281 2.164-9.001 3.392-7.331 2.422-17.59 5.005-28.324 5.005-10.332 0-18.772-1.675-24.715-3.394-2.63-.76-4.779-1.531-6.397-2.175l-26.395 5.368-.524.107-.532.05-.937-9.956c.937 9.956.936 9.956.934 9.956l-.006.001-.02.002-.075.007-.284.026c-.248.023-.613.056-1.085.098-.945.084-2.32.205-4.057.35-3.472.29-8.396.681-14.218 1.083-11.618.803-26.9185 1.66-41.4325 1.851-14.1902.187-28.6889-.234-38.1312-2.351-2.4292-.544-4.9654-1.292-7.2444-2.399-2.0892-1.014-5.22-2.928-7.1261-6.48-2.29371-4.275-1.72245-8.753.0358-12.164 1.517-2.943 3.9076-5.192 6.07-6.874 15.0761-11.726 32.0103-17.436 44.8774-20.25Z" fill="#5A6082" stroke="#C3C3C3" stroke-width="20"/></svg>