<svg xmlns="http://www.w3.org/2000/svg" width="855" height="248" fill="none"><path d="M34.5414 200.636C-5.99948 216.5 7.51114 237 54.0001 237 100.489 237 175.5 221 175.5 221s64.509 17.621 101 16c36.492-1.621 84.379-16 84.379-16s21.995 12 56.987 12c39.044 0 62.485-7.621 62.485-7.621S542.611 237 555.833 237c69.984 0 91.978-10 91.978-10s13.497 10 53.488 10c39.99 0 53.487-10 53.487-10s13.997 10 37.991 10 42.226-3 50.224-27.5c7.998-24.5-31.729-43.499-31.729-43.499s.934-21.592-10.271-30.501c-20.496-16.295-40-10-40-10s-8.256-18.613-28.5-28c-20.245-9.3874-42.5 0-42.5 0s-5.504-6.5-19-13.5c-13.497-7-27.5-6-27.5-6s1.495-18.5-18-33.5c-19.496-15-42.174-7.5-42.174-7.5s-11.991-10-31.826-13.5C531.665 20 507 28 507 28s-11.505-17.5-32.5-17.5C450 10.5 433.362 28 433.362 28S404 22 389 32.5C376.297 41.3927 371.877 62 371.877 62s-10.498-1.6379-31.493 8.5c-20.995 10.1379-33.384 34-33.384 34S273 94 240.5 101s-53 45-53 45-15.562-6.5-43 0c-27.438 6.5-45.4996 42-45.4996 42s-52.4474 7.936-64.459 12.636Z" fill="#5A6082" stroke="#C3C3C3" stroke-width="20"/></svg>