<svg xmlns="http://www.w3.org/2000/svg" width="858" height="271" fill="none"><path fill="#5A6082" stroke="#C3C3C3" stroke-width="20" d="M155.073 238.67q1.39-.324 2.389-.582l1.225.221a1212 1212 0 0 0 40.591 6.519c24.043 3.432 53.596 6.82 72.9 5.962 18.394-.817 40.754-2.325 58.462-3.625a3718 3718 0 0 0 28.153-2.173 90 90 0 0 0 1.944.866c2.918 1.258 7.113 2.891 12.44 4.51 10.651 3.237 25.884 6.432 44.523 6.432 20.171 0 36.379-1.968 47.631-3.964 5.626-.998 10.017-2.004 13.047-2.775q1.344-.343 2.327-.616l.373.068a2122 2122 0 0 0 30.226 5.337c8.646 1.459 17.766 2.928 25.589 4.036 7.556 1.069 14.639 1.914 18.774 1.914 35.455 0 59.04-2.532 73.961-5.15 7.465-1.31 12.778-2.645 16.335-3.702q.405-.12.781-.235c2.361 1.116 5.578 2.412 9.788 3.669 9.424 2.814 23.773 5.418 44.601 5.418s35.177-2.604 44.601-5.418c3.591-1.072 6.459-2.173 8.69-3.166a72 72 0 0 0 6.603 2.917c7.463 2.871 18.179 5.667 31.584 5.667 12.653 0 24.079-1.655 33.558-8.004 9.628-6.449 15.601-16.607 19.938-29.893 5.81-17.799-3.99-31.659-12.402-39.573-4.346-4.089-8.895-7.199-12.289-9.266q-.61-.37-1.172-.7a51 51 0 0 0-1.43-5.332c-1.954-5.972-5.814-13.963-13.481-20.059-11.923-9.479-23.464-12.76-32.325-13.498a49.5 49.5 0 0 0-6.699-.11 52 52 0 0 0-2.599-3.799c-4.598-6.123-12.1-13.376-23.879-18.838-12.61-5.848-26.442-5.641-36.323-4.366a99 99 0 0 0-10.695 1.989 56 56 0 0 0-.818-.867c-3.662-3.798-9.218-8.496-17.057-12.561-7.49-3.885-13.898-6.023-18.576-7.197a65 65 0 0 0-1.834-.432 142 142 0 0 0-3.866-7.434c-3.757-6.724-9.492-15.66-16.695-22.043-12.667-11.228-25.494-15.81-35.352-17.499-4.897-.839-9.028-.96-12.019-.856q-.41.015-.791.034-.335-.219-.7-.454a116 116 0 0 0-9.834-5.65c-7.787-3.972-19.124-8.592-30.601-8.592-9.769 0-18.904 1.071-25.544 2.123-1.98.314-3.753.628-5.272.916a49 49 0 0 0-2.413-2.047c-4.872-3.883-12.602-8.7-24.789-13.734-15.457-6.385-31.389-1.56-41.931 3.372-5.491 2.57-10.123 5.447-13.373 7.669a94 94 0 0 0-2.245 1.582c-2.321.014-5.479.179-9.261.741-7.833 1.164-18.377 4.037-29.653 10.803-12.111 7.267-19.433 14.138-23.84 19.627a48 48 0 0 0-2.069 2.769 136 136 0 0 0-11.432-.426c-10.575.051-24.885 1.362-38.3 6.85-13.57 5.55-24.335 14.893-31.531 22.477a120 120 0 0 0-6.176 7.042 81 81 0 0 0-11.473-3.938c-11.957-3.131-28.645-4.59-47.045 2.31-17.345 6.505-28.994 15.015-36.42 22.156a74 74 0 0 0-6.236 6.758 68 68 0 0 0-5.142-.743c-8.085-.866-19.753-.799-35.217 2.4-17.187 3.556-31.105 14.163-40.337 23.113a125 125 0 0 0-11.608 12.959q-.794-.02-1.68-.035a192 192 0 0 0-17.177.471c-12.767.944-30.33 3.643-42.067 12.207-8.945 6.528-13.53 15.62-12.222 25.765 1.196 9.267 7.079 17.391 14.233 23.711C38.906 235.467 62.856 244.8 88.28 244.8c23.745 0 41.434-1.777 53.313-3.594 5.938-.908 10.421-1.826 13.48-2.536Z"/></svg>