<svg xmlns="http://www.w3.org/2000/svg" fill="none" viewBox="0 0 508 314"><path fill="#40405c" stroke="#8a76ab" stroke-width="20" d="M258.199 284.541a90.457 90.457 0 0 0 9.156-7.949 156.63 156.63 0 0 0 8.752 4.474c8.91 4.199 21.634 9.114 33.482 9.114 11.855 0 24.543-4.919 33.421-9.122a151.22 151.22 0 0 0 6.432-3.236c3.968 5.033 10.624 9.858 20.647 9.858 10.532 0 17.345-5.326 21.23-10.624.555.231 1.131.465 1.726.703 6.669 2.662 15.991 5.798 26.29 7.467 20.308 3.29 47.681 1.12 62.905-26.124 13.089-23.42 14.054-40.884 9.868-53.369-1.368-4.079-3.213-7.39-5.098-10.007 2.801-3.935 5.977-9.363 8.185-16.056 5.119-15.515 4.504-36.356-13.962-58.799-9.064-11.017-18.596-17.655-28.23-20.825-9.666-3.181-18.646-2.613-26.135-.513l-.354.1c.073-1.01.122-2.042.142-3.092.338-17.672-7.45-38.622-34.971-54.921-27.273-16.152-51.677-14.885-69.274-9.222a84.66 84.66 0 0 0-20.219 9.643 123.644 123.644 0 0 0-17.601-13.933c-15.318-10.008-37.839-19.806-65.699-17.86-27.633 1.931-48.544 13.803-62.412 25.012a121.755 121.755 0 0 0-14.316 13.625c-2.199-1.49-4.799-3.001-7.791-4.334-11.06-4.925-26.715-7.038-45.582 1.743-9.308 4.332-15.852 9.875-19.57 16.615-3.783 6.86-3.993 13.786-2.792 19.534a35.12 35.12 0 0 0 1.801 5.898c-5.425 1.847-12.095 4.405-18.92 7.733-8.089 3.942-16.796 9.157-23.917 15.857-7.127 6.705-13.241 15.459-14.784 26.396C7.904 157.5 14.63 171.7 22.04 180.906a59.502 59.502 0 0 0 6.35 6.731c-3.424 5.295-7.328 12.967-9.139 22.448-1.865 9.767-1.462 21.251 3.696 33.606 5.125 12.276 14.709 24.853 30.33 37.308 32.326 25.773 65.937 25.743 90.933 19.361 12.407-3.169 22.769-7.901 30.022-11.826a126.95 126.95 0 0 0 5.626-3.23 74.18 74.18 0 0 0 5.807 3.263c7.633 3.856 18.757 7.908 33.111 9.08 16.427 1.341 30.331-6.246 39.423-13.106Z"/></svg>