<svg xmlns="http://www.w3.org/2000/svg" fill="none" viewBox="0 0 1600 220"><mask id="a" width="1600" height="1389" x="0" y="-1169" maskUnits="userSpaceOnUse" style="mask-type:luminance"><path fill="#fff" d="M0-1168.93h1600V220H0v-1388.93Z"/></mask><g fill="#F6F7D3" stroke="#F6D7A8" stroke-width="20" mask="url(#a)"><path d="M1019.98 105.523c-3.26.647-6.72 2.273-9.86 5.389-5.59 5.548-5.56 12.227-4.26 16.63.6 2.042 1.47 3.678 2.13 4.761.34.56.66 1.022.91 1.372.13.177.25.328.34.452.05.062.1.118.14.167.02.025.04.048.05.069l.03.031.01.014.01.007c0 .003 0 .007 7.68-6.397l-7.68 6.404 3 3.596h450.33l-1.96-11.657-9.86 1.657c9.86-1.657 9.86-1.661 9.86-1.664v-.023l-.01-.035-.02-.086c-.01-.063-.02-.141-.04-.231-.03-.179-.08-.411-.14-.69a40.01 40.01 0 0 0-.55-2.208 51.518 51.518 0 0 0-2.52-7.025c-2.43-5.507-6.71-12.683-14.06-18.517-4.41-3.499-9.21-5.543-13.74-6.665a42.97 42.97 0 0 0-1.45-1.961c-2.37-3.026-6.74-7.763-13.01-9.835-5.16-1.706-9.85-1.695-13.21-1.278l-.25.032c-.99-.688-2.13-1.463-3.37-2.274-3.94-2.563-9.7-6.005-15.13-7.802-11.45-3.786-21.65-4.792-29.04-4.844-1.35-.01-2.61.013-3.77.056-.13-.283-.26-.57-.4-.863-2.48-5.209-6.76-11.895-13.95-17.599-7.11-5.644-13.89-8.025-19.26-8.845a33.14 33.14 0 0 0-1.79-.223c-.3-.393-.61-.793-.95-1.2-3.42-4.109-8.87-8.53-17.26-11.651-11.29-4.198-20.87-3.602-27.83-1.684-1.1.302-2.13.635-3.08.983-.33-.27-.67-.54-1.03-.807-5.08-3.8-12.71-6.974-22.88-5.853-11.02 1.215-18.36 5.088-23.05 9.71-.15.147-.29.293-.43.439l-.51-.123c-5.7-1.357-13.75-2.234-24.09-.952-11 1.363-19.33 5.473-24.95 9.305a53.202 53.202 0 0 0-3.36 2.49 34.39 34.39 0 0 0-2.88-.663c-6.44-1.197-15.12-.99-25.86 3.006-11.82 4.394-18.25 12.032-21.54 18.957-.65 1.379-1.17 2.71-1.59 3.958a46.822 46.822 0 0 0-8.78 2.838c-8.07 3.516-17.13 10.107-24.52 21.982-13.86-2.53-24.08-.357-31.4 3.997a30.234 30.234 0 0 0-6.09 4.752c-4.29-.625-9.9-.229-15.43 3.426-3.41 2.257-5.89 4.718-7.65 7.175ZM294.295 166.65l-9.8-1.986-2.429 11.986h403.669l1.624-8.014-9.801-1.986c9.801 1.986 9.802 1.982 9.803 1.977l.002-.01.004-.02.009-.047.023-.117.057-.32c.043-.251.095-.578.149-.975.108-.792.228-1.87.306-3.184a51.762 51.762 0 0 0-.456-10.436c-1.223-8.45-4.928-19.415-14.725-29.085-8.87-8.754-18.202-11.958-26.058-12.534.091-7.371-1.789-16.48-8.565-25.399-8.632-11.36-21.305-13.7-30.188-13.7-3.29 0-6.305.311-8.805.703a55.191 55.191 0 0 0-.713-.9c-3.185-3.93-8.207-8.971-15.196-12.42a49.386 49.386 0 0 0-13.647-4.413 41.403 41.403 0 0 0-2.048-10.295c-4.227-12.515-15.261-24.515-38.159-29.036-22.864-4.513-38.114 2.218-47.486 11.469-3.637 3.59-6.192 7.362-7.944 10.559a65.288 65.288 0 0 0-10.273-.265c-10.498.576-24.556 4.115-34.879 16.851-10.695 13.196-10.152 29.584-7.977 40.854a84.24 84.24 0 0 0 2.029 8.212c-2.503.775-5.158 1.88-7.585 3.477-3.063 2.016-5.901 4.622-8.136 6.909a70.483 70.483 0 0 0-9.454-4.478c-10.328-3.964-25.316-6.691-40.606.856-13.532 6.678-21.042 14.877-25.071 22.168a37.35 37.35 0 0 0-.604 1.137l-.391-.107c-6.005-1.616-15.254-3.207-23.999-.33-10.122 3.33-15.609 12.623-18.305 18.479a63.17 63.17 0 0 0-3.9 11.217 47.108 47.108 0 0 0-.246 1.076l-.018.085-.006.032-.003.013-.001.006c-.001.003-.001.005 9.799 1.991Z"/><path d="M588.309 124.842a68.484 68.484 0 0 0-7.632 6.033 33.796 33.796 0 0 0-.82-.145c-4.583-.755-11.2-.843-17.983 2.509-6.06 2.994-10.384 7.351-13.103 10.71a42.76 42.76 0 0 0-.433.544 84.384 84.384 0 0 0-9.761.053c-9.744.602-23.015 3.002-37.429 10.124-15.683 7.749-24.608 20.562-29.54 30.919a80.013 80.013 0 0 0-4.635 12.235c-.145.039-.292.08-.44.122-4.771 1.347-11.134 3.916-18.508 8.774-8.544 5.628-13.869 13.767-16.976 19.909a65.706 65.706 0 0 0-1.634 3.474 47.588 47.588 0 0 0-4.435.19c-7.554.678-17.585 3.446-26.195 11.955-7.935 7.841-11.886 16.34-13.838 22.928a48.56 48.56 0 0 0-1.696 8.192 36.833 36.833 0 0 0-.209 2.545c-.015.322-.022.591-.025.802-.002.106-.002.197-.002.274v.103l.001.043V277.164c0 .005 0 .009 9.999-.135l-9.999.144.143 9.91 9.91-.054 1149.241-6.237 2.35-19.708-69.4-17.145-.39-.095-.39-.064c-26.9-4.431-49.38-4.441-65.22-3.323-7.93.559-14.2 1.402-18.54 2.117l-.46.077c-.29-.308-.6-.622-.92-.939-3.69-3.641-9.32-7.743-17.46-10.422-8.13-2.678-15.11-2.735-20.25-2.011-.15.021-.29.043-.44.065a99.895 99.895 0 0 0-3.11-3.722c-5.17-5.898-13.29-13.88-25.42-22.872-14.52-10.759-32.73-11.645-45.86-10.5-5.31.462-10.1 1.284-13.97 2.111-1.7-4.673-4.29-10.613-8.16-17.099-8.88-14.866-24.45-32.526-51.06-44.214-26.58-11.672-51.38-11.657-69.45-8.754-9.03 1.451-16.43 3.631-21.63 5.47-.68.241-1.32.476-1.92.704-.96-.867-2.02-1.812-3.16-2.793-4.34-3.757-10.61-8.817-16.21-11.581-3.96-1.956-8.52-2.596-12.22-2.824-3.9-.241-7.94-.074-11.46.216-1.39.114-2.72.249-3.97.394-1.7-4.748-4.37-10.952-8.44-17.4-8.65-13.71-23.89-28.887-49.25-32.742-25.01-3.803-43.952 4.935-56.389 14.483a84.06 84.06 0 0 0-11.925 11.184c-2.486-1.562-5.488-3.172-9.049-4.654-12.227-5.087-30.457-8.42-56.034-3.824-26.346 4.733-41.633 16.834-50.223 28.587a59.907 59.907 0 0 0-4.609 7.365c-3.271-2.346-7.185-4.838-11.363-6.781-4.111-1.912-9.152-3.611-14.451-3.611-5.299 0-10.339 1.699-14.45 3.611-4.214 1.96-8.159 4.478-11.447 6.841a106.613 106.613 0 0 0-6.24 4.86 93.149 93.149 0 0 0-5.107-1.915c-6.946-2.376-16.75-4.825-27.819-4.825-11.07 0-20.874 2.449-27.82 4.825a90.302 90.302 0 0 0-7.001 2.718c-.6-.258-1.254-.533-1.957-.824a174.136 174.136 0 0 0-16.189-5.759c-13.018-3.915-30.913-7.588-48.195-5.148-16.873 2.382-29.151 8.381-37.323 13.971Z"/><path d="M553.798 135.963c-1.288.16-2.466.36-3.518.573a233.222 233.222 0 0 0-8.736-5.99c-7.135-4.652-16.962-10.471-25.864-13.416-20.057-6.637-37.907-8.395-50.799-8.486a141.25 141.25 0 0 0-12.33.436 82.68 82.68 0 0 0-2.834-6.704c-4.151-8.733-11.298-19.895-23.267-29.4-11.896-9.447-22.971-13.254-31.458-14.55a49.54 49.54 0 0 0-6.585-.57 46.638 46.638 0 0 0-3.62-4.968c-5.353-6.434-14.143-13.707-28.2-18.94-18.939-7.05-34.74-5.978-46.007-2.871a62.441 62.441 0 0 0-9.569 3.488 46.97 46.97 0 0 0-5.209-4.533c-7.843-5.872-19.774-10.949-36.108-9.147-18.68 2.06-30.323 8.51-37.399 15.497a38.883 38.883 0 0 0-3.809 4.354 79.227 79.227 0 0 0-5.73-1.587c-9.529-2.268-23.317-3.82-41.309-1.588-18.651 2.315-32.724 9.277-42.168 15.722a85.108 85.108 0 0 0-9.011 7.061c-2.383-.89-5.283-1.75-8.697-2.385-10.262-1.91-24.686-1.702-43.08 5.145-19.465 7.246-29.722 19.638-34.919 30.6a55.939 55.939 0 0 0-3.875 11.014c-5.044.721-11.823 2.276-19.407 5.582-14.36 6.261-31.052 18.57-44.228 42.155-26.934-6.119-45.345-2.149-57.592 5.146-5.668 3.376-9.697 7.284-12.471 10.715a36.248 36.248 0 0 0-1.76-.435c-6.583-1.452-15.838-1.501-24.981 4.55-6.95 4.6-11.204 9.529-13.734 14.001-5.302.312-11.48 2.426-17.163 8.067l6.969 7.02-6.969-7.02c-7.504 7.449-7.469 16.225-5.694 22.249.84 2.853 2.062 5.182 3.022 6.756.491.805.944 1.461 1.297 1.944a21.204 21.204 0 0 0 .685.89l.027.033.013.015.006.007c.002.003.005.007 7.689-6.394l-7.684 6.401 2.999 3.599H654.427l-1.957-11.655-9.862 1.655c9.862-1.655 9.861-1.659 9.86-1.662l-.001-.008-.003-.017-.007-.042-.019-.11-.061-.327a46.026 46.026 0 0 0-.219-1.065 65.908 65.908 0 0 0-.897-3.603 87.017 87.017 0 0 0-4.223-11.777c-4.102-9.307-11.252-21.235-23.386-30.871-8.003-6.355-16.881-9.751-25.144-11.377a72.795 72.795 0 0 0-4.147-5.884c-4.046-5.163-10.805-12.278-19.94-15.301-8.033-2.658-15.351-2.647-20.623-1.992ZM1052.39 219.999l-8.27-5.624-10.63 15.624H1750.16l-2.54-12.062-9.79 2.062c9.79-2.062 9.79-2.063 9.79-2.065v-.014l-.01-.027-.02-.087c-.01-.071-.04-.17-.06-.295-.03-.127-.07-.28-.11-.459-.04-.174-.08-.372-.13-.594-.21-.896-.52-2.169-.92-3.734-.81-3.121-2.03-7.441-3.65-12.256-3.14-9.304-8.21-21.706-15.6-30.477-8.93-10.589-21.77-12.63-30.6-12.63-3.03 0-5.84.237-8.24.552-1.51-2.699-3.48-5.928-5.89-9.194-5.57-7.55-15.85-18.585-30.24-18.585-11.84 0-21.43 4.673-27.79 8.983-.48.322-.94.644-1.38.965-3.29-4.054-7.64-9.122-12.66-14.22-5.63-5.726-12.32-11.728-19.48-16.359-7-4.528-15.45-8.411-24.37-8.411-14.18 0-26.38 4.189-34.89 8.226-.38.181-.75.362-1.12.542-2.1-5.876-5.6-12.827-11.42-19.734-7.23-8.577-14.74-13.162-20.8-15.56a40.075 40.075 0 0 0-2.94-1.035c-.08-.337-.18-.683-.27-1.038-1.28-4.682-3.42-11.053-6.89-17.737-6.91-13.309-19.68-28.901-42.13-33.34-23.7-4.686-42.34 9.615-53.71 22.148-5.89 6.487-10.46 13.151-13.54 18.148-.15.24-.29.475-.44.707a91.54 91.54 0 0 0-12.14-2.934c-11.87-2.011-28.38-2.26-43.49 6.704-14.95 8.864-23.67 23.897-28.6 35.574-1.97 4.674-3.42 9.03-4.46 12.605-3.22-.323-7.14-.57-11.57-.57-12.46 0-29.33 1.961-46.36 10.041-18.15 8.614-30.14 25.37-37.4 38.757-2.27 4.186-4.15 8.18-5.66 11.71-6.32-3.964-15.26-7.87-26.09-7.87-13.18 0-23.27 7.726-29.32 13.879a70.178 70.178 0 0 0-5.49 6.328 213.91 213.91 0 0 0-7.44-1.811c-8.31-1.871-19.52-3.875-29.8-3.875-7.15 0-13.67 2.786-18.93 6.017-5.35 3.281-10.16 7.496-14.1 11.447-3.97 3.985-7.27 7.931-9.57 10.863a113.297 113.297 0 0 0-2.72 3.596c-.33.443-.58.798-.76 1.052-.08.127-.15.228-.21.303l-.06.091-.02.03-.01.011v.005c0 .001 0 .003 8.27 5.627Z"/></g></svg>