<svg xmlns="http://www.w3.org/2000/svg" width="425" height="178" fill="none"><path fill="#5A6082" stroke="#C3C3C3" stroke-width="20" d="M62.492 116.465c4.435-.97 8.448-1.61 11.82-2.032a27 27 0 0 1 .289-2.04c1.639-9.069 8.038-17.905 21.86-22.726 6.218-2.17 11.512-3.369 16.047-3.754a85 85 0 0 1-.048-6.297c.345-11.441 3.325-27.75 16.735-37.963 11.167-8.504 21.463-11.79 29.37-12.776a44.6 44.6 0 0 1 6.741-.34 65 65 0 0 1 7.278-7.237c6.844-5.783 17.808-12.387 31.565-11.15 12.914 1.16 21.897 7.387 27.502 13.17q.384.397.747.79a47 47 0 0 1 3.457-2.183c8.549-4.886 21.099-8.354 36.503-3.324 13.87 4.528 21.675 11.58 24.345 20.164 2.112.014 4.435.129 6.905.403 10.583 1.176 24.443 5.377 35.579 17.75 10.428 11.587 15.515 24.749 18.018 34.764a91 91 0 0 1 1.72 8.612c.968.094 1.996.199 3.075.317 6.756.738 15.757 2 24.156 4.107 4.201 1.053 8.46 2.369 12.309 4.034 3.736 1.617 7.724 3.832 10.828 6.979 3.289 3.335 5.959 8.173 5.429 14.223-.492 5.614-3.597 10.329-7.309 14.135-14.723 15.095-37.389 17.571-53.851 17.205-8.589-.191-16.34-1.18-21.927-2.112a146 146 0 0 1-6.701-1.274l-.464-.101a731 731 0 0 1-16.888 2.694c-10.108 1.485-22.817 3.106-30.828 3.106-8.253 0-23.338-2.458-35.419-4.663a890 890 0 0 1-19.92-3.879l-.336.145a115 115 0 0 1-9.001 3.392c-7.331 2.422-17.59 5.005-28.324 5.005-10.332 0-18.772-1.675-24.715-3.394a70 70 0 0 1-6.397-2.175l-26.395 5.368-.524.107-.532.05-.937-9.956c.937 9.956.936 9.956.934 9.956l-.006.001-.02.002-.075.007-.284.026-1.085.098c-.945.084-2.32.205-4.057.35-3.472.29-8.396.681-14.218 1.083-11.618.803-26.919 1.66-41.433 1.851-14.19.187-28.688-.234-38.13-2.351-2.43-.544-4.966-1.292-7.245-2.399-2.09-1.014-5.22-2.928-7.126-6.48-2.294-4.275-1.723-8.753.036-12.164 1.517-2.943 3.907-5.192 6.07-6.874 15.076-11.726 32.01-17.436 44.877-20.25Z"/></svg>