<svg xmlns="http://www.w3.org/2000/svg" fill="none" viewBox="0 0 835 246"><path fill="#40405c" stroke="#8a76ab" stroke-width="20" d="M20.544 199.636C-8.916 213.041 27.96 220 74.46 220s68.753-6.959 68.753-6.959 78.246 14.58 114.746 12.959c36.5-1.621 89-6 89-6s22 12 57 12c39.053 0 62.5-7.621 62.5-7.621S528.733 236 541.959 236c70 0 92-10 92-10s13.5 10 53.5 10 53.5-10 53.5-10 14 10 38 10 36-6.5 44-31-25.5-39.999-25.5-39.999-.792-15.091-12-24c-20.5-16.295-38.5-10.5-38.5-10.5s-4.751-15.114-25-24.501-46.5 0-46.5 0-6-10-19.5-17-22-6.5-22-6.5 0-22.5-19.5-37.5c-31.816-24.474-45-9-45-9s-12.5-15-38.5-15-36 10.5-36 10.5-15-21.5-36-21.5c-35.5 0-39.5 17-39.5 17s-13-1-34 9c-22.684 10.802-27.5 25-27.5 25s-10.5-1.638-31.5 8.5-26.916 31.5-26.916 31.5-26.584-10.5-41.584 0c-15 10.5-25.915 27.136-25.915 27.136l-56.5 32.5s-21.501-8.5-40.5-4c-19 4.5-28 24-28 24s-74.758 13.657-86.5 19Z"/></svg>