<svg xmlns="http://www.w3.org/2000/svg" fill="none" viewBox="0 0 3198 220"><mask id="a" width="1600" height="1389" x="0" y="-1169" maskUnits="userSpaceOnUse" style="mask-type:luminance"><path fill="#fff" d="M0-1168.93h1600V220H0v-1388.93Z"/></mask><g fill="#40405C" stroke="#8A76AB" stroke-width="20" mask="url(#a)"><path d="M1316.93 35.661a33.04 33.04 0 0 0-1.79-.223c-.3-.392-.61-.793-.95-1.199-3.42-4.11-8.87-8.53-17.26-11.652-11.29-4.198-20.87-3.602-27.83-1.684-1.1.303-2.13.636-3.08.983-.33-.27-.67-.539-1.03-.807-5.08-3.8-12.71-6.974-22.88-5.853-11.02 1.215-18.36 5.088-23.05 9.711-.15.146-.29.292-.43.438l-.51-.123c-5.7-1.356-13.75-2.234-24.09-.952-11 1.364-19.33 5.473-24.95 9.305a53.202 53.202 0 0 0-3.36 2.49 34.39 34.39 0 0 0-2.88-.663c-6.44-1.197-15.12-.99-25.86 3.007-11.82 4.393-18.25 12.03-21.54 18.956-.65 1.38-1.17 2.71-1.59 3.958a46.822 46.822 0 0 0-8.78 2.839c-8.07 3.516-17.13 10.106-24.52 21.981-13.86-2.53-24.08-.357-31.4 3.997a30.234 30.234 0 0 0-6.09 4.752c-4.29-.625-9.9-.228-15.43 3.426-3.41 2.257-5.89 4.718-7.65 7.175-3.26.647-6.72 2.274-9.86 5.389-5.59 5.548-5.56 12.228-4.26 16.63.6 2.042 1.47 3.678 2.13 4.761.34.56.66 1.022.91 1.373.13.176.25.327.34.451.05.062.1.118.14.167.02.025.04.048.05.069l.03.031.01.014.01.007c0 .004 0 .007 7.68-6.397l-7.68 6.404 3 3.596h450.33l-1.96-11.657-9.86 1.657c9.86-1.657 9.86-1.661 9.86-1.664v-.023l-.01-.035-.01-.086c-.02-.063-.03-.14-.05-.23-.03-.18-.08-.412-.14-.691-.12-.556-.3-1.305-.55-2.207a51.571 51.571 0 0 0-2.52-7.026c-2.43-5.506-6.71-12.683-14.06-18.517-4.41-3.498-9.21-5.543-13.74-6.665a42.97 42.97 0 0 0-1.45-1.961c-2.37-3.026-6.74-7.763-13.01-9.834-5.16-1.707-9.85-1.696-13.21-1.279l-.25.032c-.99-.688-2.13-1.463-3.37-2.273-3.94-2.564-9.7-6.006-15.13-7.803-11.45-3.785-21.65-4.792-29.04-4.844-1.35-.01-2.61.013-3.77.056-.13-.283-.26-.57-.4-.862-2.48-5.21-6.76-11.896-13.95-17.6-7.11-5.644-13.89-8.024-19.26-8.845ZM294.296 166.65l-9.801-1.985-2.429 11.985h403.67l1.623-8.014-9.8-1.986c9.8 1.986 9.801 1.982 9.802 1.977l.002-.009.004-.021.01-.047.022-.116.057-.32c.043-.252.095-.579.149-.975.109-.793.228-1.871.306-3.184a51.77 51.77 0 0 0-.456-10.437c-1.223-8.45-4.928-19.414-14.725-29.085-8.87-8.754-18.202-11.958-26.058-12.534.091-7.371-1.789-16.48-8.565-25.399-8.632-11.36-21.305-13.7-30.188-13.7-3.29 0-6.304.312-8.805.703a50.244 50.244 0 0 0-.713-.9c-3.185-3.929-8.207-8.97-15.196-12.42a49.386 49.386 0 0 0-13.647-4.413 41.403 41.403 0 0 0-2.048-10.294c-4.226-12.516-15.261-24.516-38.159-29.037-22.864-4.513-38.113 2.219-47.485 11.47-3.638 3.59-6.193 7.362-7.945 10.558a65.288 65.288 0 0 0-10.273-.264c-10.498.575-24.556 4.114-34.879 16.85-10.695 13.196-10.152 29.584-7.977 40.855a84.328 84.328 0 0 0 2.029 8.212c-2.503.774-5.158 1.88-7.585 3.477-3.063 2.015-5.901 4.621-8.136 6.908a70.483 70.483 0 0 0-9.454-4.478c-10.327-3.964-25.316-6.69-40.606.856-13.532 6.678-21.042 14.877-25.071 22.168a39.88 39.88 0 0 0-.604 1.137l-.391-.106c-6.005-1.617-15.253-3.208-23.999-.331-10.122 3.331-15.609 12.623-18.305 18.479a63.11 63.11 0 0 0-4.091 12.039l-.055.254-.018.085-.006.032-.003.013-.001.006c-.001.003-.001.006 9.8 1.991Z"/><path d="M548.338 144.493a84.384 84.384 0 0 0-9.761.053c-9.744.602-23.015 3.002-37.429 10.124-15.683 7.748-24.608 20.562-29.54 30.919a79.974 79.974 0 0 0-4.635 12.235c-.145.039-.292.08-.44.122-4.771 1.347-11.134 3.916-18.508 8.774-8.544 5.628-13.868 13.767-16.976 19.909a67.337 67.337 0 0 0-1.634 3.474 47.57 47.57 0 0 0-4.435.189c-7.554.679-17.585 3.447-26.195 11.956-7.934 7.841-11.886 16.34-13.838 22.928a48.64 48.64 0 0 0-1.696 8.192 36.833 36.833 0 0 0-.209 2.545c-.015.322-.022.591-.025.802l-.002.273v.104l.001.043V277.164c0 .005 0 .009 9.999-.135l-9.999.144.143 9.909 9.911-.053 1149.24-6.237 2.35-19.708-69.4-17.145-.39-.095-.39-.064c-26.9-4.431-49.38-4.441-65.22-3.323-7.93.559-14.2 1.401-18.54 2.117l-.46.077c-.29-.308-.6-.622-.92-.939-3.69-3.641-9.32-7.743-17.46-10.422-8.13-2.678-15.11-2.736-20.25-2.011-.15.021-.29.043-.44.065a99.895 99.895 0 0 0-3.11-3.722c-5.17-5.898-13.29-13.88-25.42-22.872-14.52-10.759-32.73-11.645-45.86-10.5-5.31.462-10.1 1.284-13.97 2.111-1.7-4.673-4.29-10.614-8.16-17.1-8.88-14.865-24.45-32.525-51.06-44.213-26.58-11.672-51.38-11.657-69.45-8.754-9.03 1.451-16.43 3.63-21.63 5.47-.68.241-1.32.476-1.92.703-.96-.866-2.02-1.811-3.16-2.793-4.34-3.756-10.61-8.816-16.21-11.58-3.96-1.956-8.52-2.596-12.21-2.824-3.91-.241-7.95-.074-11.47.215-1.39.114-2.72.25-3.97.395-1.7-4.748-4.37-10.952-8.44-17.4-8.65-13.71-23.89-28.888-49.25-32.743-25.01-3.802-43.952 4.936-56.389 14.484a83.997 83.997 0 0 0-11.924 11.184c-2.486-1.562-5.489-3.173-9.05-4.654-12.227-5.087-30.457-8.42-56.034-3.825-26.346 4.734-41.633 16.835-50.223 28.588a60.096 60.096 0 0 0-4.609 7.364c-3.271-2.345-7.185-4.837-11.363-6.78-4.111-1.912-9.151-3.611-14.451-3.611-5.299 0-10.339 1.699-14.45 3.611-4.214 1.959-8.159 4.478-11.447 6.841a106.613 106.613 0 0 0-6.24 4.86 93.149 93.149 0 0 0-5.107-1.915c-6.946-2.377-16.749-4.825-27.819-4.825s-20.874 2.448-27.82 4.825a90.622 90.622 0 0 0-7.001 2.718c-.6-.258-1.253-.534-1.957-.824a174.356 174.356 0 0 0-16.188-5.76c-13.018-3.915-30.914-7.587-48.196-5.147-16.872 2.382-29.15 8.38-37.323 13.971a68.484 68.484 0 0 0-7.632 6.033 33.796 33.796 0 0 0-.82-.145c-4.582-.755-11.2-.843-17.983 2.509-6.06 2.994-10.384 7.351-13.102 10.71-.149.183-.293.364-.434.544Z"/><path d="M-130.742 172.432c-6.95 4.599-11.204 9.529-13.734 14-5.302.313-11.48 2.426-17.163 8.068l6.969 7.02-6.969-7.02c-7.504 7.449-7.469 16.225-5.694 22.249.841 2.853 2.062 5.182 3.022 6.755.491.805.944 1.462 1.297 1.945a22.744 22.744 0 0 0 .621.811l.064.078.027.033.013.016.006.007c.003.003.005.007 7.689-6.394l-7.684 6.401 2.999 3.599H654.427l-1.957-11.656-9.862 1.656c9.862-1.656 9.861-1.659 9.861-1.663l-.002-.008-.003-.017-.007-.041-.019-.11-.061-.328a46.026 46.026 0 0 0-.219-1.065 66.138 66.138 0 0 0-.897-3.603 87.06 87.06 0 0 0-4.223-11.776c-4.102-9.307-11.252-21.235-23.386-30.872-8.002-6.355-16.881-9.751-25.144-11.376a72.62 72.62 0 0 0-4.147-5.884c-4.046-5.164-10.804-12.278-19.94-15.301-8.033-2.658-15.351-2.647-20.623-1.992-1.288.16-2.466.36-3.518.573a232.391 232.391 0 0 0-8.736-5.99c-7.135-4.652-16.962-10.471-25.864-13.417-20.057-6.637-37.906-8.395-50.799-8.485-4.844-.035-9.002.167-12.33.436a82.323 82.323 0 0 0-2.834-6.704c-4.151-8.733-11.298-19.895-23.267-29.4-11.896-9.448-22.971-13.255-31.458-14.55a49.54 49.54 0 0 0-6.585-.57 46.748 46.748 0 0 0-3.619-4.969c-5.354-6.433-14.144-13.706-28.201-18.939-18.939-7.05-34.74-5.978-46.007-2.872a62.452 62.452 0 0 0-9.569 3.488 46.97 46.97 0 0 0-5.209-4.533c-7.843-5.872-19.774-10.948-36.108-9.146-18.68 2.06-30.323 8.51-37.399 15.497a38.985 38.985 0 0 0-3.809 4.354 78.992 78.992 0 0 0-5.73-1.587c-9.529-2.269-23.317-3.82-41.309-1.588-18.651 2.314-32.724 9.276-42.168 15.722a85.121 85.121 0 0 0-9.011 7.061c-2.383-.89-5.283-1.75-8.697-2.385-10.262-1.91-24.686-1.703-43.08 5.145-19.465 7.246-29.722 19.637-34.919 30.6a55.921 55.921 0 0 0-3.875 11.014c-5.043.721-11.823 2.276-19.407 5.582-14.36 6.26-31.051 18.569-44.228 42.155-26.934-6.119-45.345-2.149-57.592 5.145-5.668 3.376-9.697 7.285-12.47 10.716a36.583 36.583 0 0 0-1.761-.435c-6.583-1.452-15.837-1.501-24.981 4.55ZM1052.39 220l-8.27-5.624L1033.49 230H1750.16l-2.54-12.062-9.79 2.062c9.79-2.062 9.79-2.064 9.79-2.065v-.014l-.01-.028-.02-.086c-.01-.072-.04-.171-.06-.296-.03-.126-.07-.279-.11-.458-.04-.174-.08-.373-.13-.594-.21-.896-.52-2.17-.92-3.734-.81-3.122-2.03-7.442-3.65-12.256-3.14-9.305-8.21-21.706-15.6-30.477-8.93-10.589-21.77-12.631-30.6-12.631-3.03 0-5.84.238-8.24.552-1.51-2.698-3.48-5.927-5.89-9.193-5.57-7.551-15.85-18.585-30.24-18.585-11.84 0-21.43 4.672-27.79 8.983-.48.322-.94.644-1.38.964-3.29-4.054-7.64-9.122-12.66-14.22-5.63-5.726-12.32-11.727-19.48-16.358-7-4.529-15.45-8.411-24.37-8.411-14.18 0-26.38 4.189-34.88 8.226-.39.181-.76.361-1.13.542-2.1-5.876-5.6-12.827-11.42-19.734-7.23-8.577-14.74-13.162-20.8-15.56a40.122 40.122 0 0 0-2.94-1.035c-.08-.337-.18-.683-.27-1.039-1.28-4.682-3.42-11.052-6.89-17.736-6.91-13.31-19.68-28.901-42.13-33.34-23.7-4.687-42.34 9.614-53.71 22.148-5.89 6.487-10.46 13.151-13.54 18.148-.15.239-.29.474-.43.706a92.11 92.11 0 0 0-12.15-2.934c-11.87-2.01-28.38-2.26-43.49 6.704-14.95 8.864-23.67 23.898-28.6 35.574-1.97 4.675-3.42 9.03-4.46 12.606-3.22-.323-7.14-.571-11.57-.571-12.46 0-29.33 1.962-46.36 10.042-18.15 8.614-30.14 25.37-37.4 38.757-2.27 4.186-4.15 8.18-5.66 11.71-6.32-3.964-15.26-7.87-26.09-7.87-13.18 0-23.27 7.726-29.32 13.879a70.04 70.04 0 0 0-5.49 6.328c-2.13-.559-4.65-1.185-7.44-1.812-8.31-1.87-19.52-3.874-29.8-3.874-7.15 0-13.67 2.786-18.93 6.016-5.35 3.281-10.16 7.496-14.1 11.447-3.97 3.985-7.27 7.932-9.57 10.864a113.297 113.297 0 0 0-2.72 3.596c-.32.442-.58.798-.75 1.051-.09.127-.16.229-.22.303l-.06.092-.02.03-.01.011v.004c0 .002 0 .004 8.27 5.628Z"/></g><mask id="b" width="1600" height="1389" x="1598" y="-1169" maskUnits="userSpaceOnUse" style="mask-type:luminance"><path fill="#fff" d="M1598-1168.93h1600V220H1598v-1388.93Z"/></mask><g fill="#40405C" stroke="#8A76AB" stroke-width="20" mask="url(#b)"><path d="M2914.93 35.661a33.04 33.04 0 0 0-1.79-.223c-.3-.392-.61-.793-.95-1.199-3.42-4.11-8.87-8.53-17.26-11.652-11.29-4.198-20.87-3.602-27.83-1.684-1.1.303-2.13.636-3.08.983-.33-.27-.67-.539-1.03-.807-5.08-3.8-12.71-6.974-22.88-5.853-11.02 1.215-18.36 5.088-23.05 9.711-.15.146-.29.292-.43.438l-.51-.123c-5.7-1.356-13.75-2.234-24.09-.952-11 1.364-19.33 5.473-24.95 9.305a53.202 53.202 0 0 0-3.36 2.49 34.39 34.39 0 0 0-2.88-.663c-6.44-1.197-15.12-.99-25.86 3.007-11.82 4.393-18.25 12.03-21.54 18.956-.65 1.38-1.17 2.71-1.59 3.958a46.822 46.822 0 0 0-8.78 2.839c-8.07 3.516-17.13 10.106-24.52 21.981-13.86-2.53-24.08-.357-31.4 3.997a30.234 30.234 0 0 0-6.09 4.752c-4.29-.625-9.9-.228-15.43 3.426-3.41 2.257-5.89 4.718-7.65 7.175-3.26.647-6.72 2.274-9.86 5.389-5.59 5.548-5.56 12.228-4.26 16.63.6 2.042 1.47 3.678 2.13 4.761.34.56.66 1.022.91 1.373.13.176.25.327.34.451.05.062.1.118.14.167.02.025.04.048.05.069l.03.031.01.014.01.007c0 .004 0 .007 7.68-6.397l-7.68 6.404 3 3.596h450.33l-1.96-11.657-9.86 1.657c9.86-1.657 9.86-1.661 9.86-1.664v-.023l-.01-.035-.01-.086c-.02-.063-.03-.14-.05-.23-.03-.18-.08-.412-.14-.691-.12-.556-.3-1.305-.55-2.207a51.571 51.571 0 0 0-2.52-7.026c-2.43-5.506-6.71-12.683-14.06-18.517-4.41-3.498-9.21-5.543-13.74-6.665a42.97 42.97 0 0 0-1.45-1.961c-2.37-3.026-6.74-7.763-13.01-9.834-5.16-1.707-9.85-1.696-13.21-1.279l-.25.032c-.99-.688-2.13-1.463-3.37-2.273-3.94-2.564-9.7-6.006-15.13-7.803-11.45-3.785-21.65-4.792-29.04-4.844-1.35-.01-2.61.013-3.77.056-.13-.283-.26-.57-.4-.862-2.48-5.21-6.76-11.896-13.95-17.6-7.11-5.644-13.89-8.024-19.26-8.845ZM1892.3 166.65l-9.81-1.985-2.42 11.985h403.67l1.62-8.014-9.8-1.986c9.8 1.986 9.8 1.982 9.8 1.977v-.009l.01-.021.01-.047c0-.034.01-.073.02-.116.02-.088.03-.195.06-.32.04-.252.09-.579.15-.975.1-.793.22-1.871.3-3.184.16-2.617.15-6.234-.45-10.437-1.23-8.45-4.93-19.414-14.73-29.085-8.87-8.754-18.2-11.958-26.06-12.534.09-7.371-1.79-16.48-8.56-25.399-8.64-11.36-21.31-13.7-30.19-13.7-3.29 0-6.31.312-8.81.703a25.14 25.14 0 0 0-.71-.9c-3.18-3.929-8.21-8.97-15.19-12.42a49.466 49.466 0 0 0-13.65-4.413c-.22-3.079-.8-6.603-2.05-10.294-4.23-12.516-15.26-24.516-38.16-29.037-22.86-4.513-38.11 2.219-47.48 11.47a45.687 45.687 0 0 0-7.95 10.558 65.241 65.241 0 0 0-10.27-.264c-10.5.575-24.56 4.114-34.88 16.85-10.7 13.196-10.15 29.584-7.98 40.855a84.9 84.9 0 0 0 2.03 8.212c-2.5.774-5.16 1.88-7.58 3.477-3.07 2.015-5.9 4.621-8.14 6.908a70.415 70.415 0 0 0-9.45-4.478c-10.33-3.964-25.32-6.69-40.61.856-13.53 6.678-21.04 14.877-25.07 22.168-.21.384-.41.763-.61 1.137-.12-.035-.25-.071-.39-.106-6-1.617-15.25-3.208-24-.331-10.12 3.331-15.6 12.623-18.3 18.479a63.507 63.507 0 0 0-3.17 8.491 63.75 63.75 0 0 0-.73 2.727c-.08.339-.15.615-.19.821-.02.103-.04.188-.06.254l-.01.085-.01.032v.019c0 .003-.01.006 9.8 1.991Z"/><path d="M2146.34 144.493a84.367 84.367 0 0 0-9.76.053c-9.75.602-23.02 3.002-37.43 10.124-15.68 7.748-24.61 20.562-29.54 30.919a80.595 80.595 0 0 0-4.64 12.235l-.44.122c-4.77 1.347-11.13 3.916-18.5 8.774-8.55 5.628-13.87 13.767-16.98 19.909a65.21 65.21 0 0 0-1.64 3.474c-1.36-.006-2.85.048-4.43.189-7.55.679-17.59 3.447-26.2 11.956-7.93 7.841-11.88 16.34-13.83 22.928a48.117 48.117 0 0 0-1.7 8.192 37.58 37.58 0 0 0-.21 2.545c-.01.322-.02.591-.02.802v.449c0 .005 0 .009 10-.135l-10 .144.14 9.909 9.91-.053 1149.24-6.237 2.35-19.708-69.4-17.145-.39-.095-.39-.064c-26.9-4.431-49.38-4.441-65.22-3.323-7.93.559-14.2 1.401-18.54 2.117l-.46.077c-.29-.308-.6-.622-.92-.939-3.69-3.641-9.32-7.743-17.46-10.422-8.13-2.678-15.11-2.736-20.25-2.011-.15.021-.29.043-.44.065a99.895 99.895 0 0 0-3.11-3.722c-5.17-5.898-13.29-13.88-25.42-22.872-14.52-10.759-32.73-11.645-45.86-10.5-5.31.462-10.1 1.284-13.97 2.111-1.7-4.673-4.29-10.614-8.16-17.1-8.88-14.865-24.45-32.525-51.06-44.213-26.58-11.672-51.38-11.657-69.45-8.754-9.03 1.451-16.43 3.63-21.63 5.47-.68.241-1.32.476-1.92.703-.96-.866-2.02-1.811-3.16-2.793-4.34-3.756-10.61-8.816-16.21-11.58-3.96-1.956-8.52-2.596-12.21-2.824-3.91-.241-7.95-.074-11.47.215-1.39.114-2.72.25-3.97.395-1.7-4.748-4.37-10.952-8.44-17.4-8.65-13.71-23.89-28.888-49.25-32.743-25.01-3.802-43.95 4.936-56.39 14.484a83.563 83.563 0 0 0-11.92 11.184 61.36 61.36 0 0 0-9.05-4.654c-12.23-5.087-30.46-8.42-56.04-3.825-26.34 4.734-41.63 16.835-50.22 28.588a60.11 60.11 0 0 0-4.61 7.364c-3.27-2.345-7.18-4.837-11.36-6.78-4.11-1.912-9.15-3.611-14.45-3.611-5.3 0-10.34 1.699-14.45 3.611-4.22 1.959-8.16 4.478-11.45 6.841a106.277 106.277 0 0 0-6.24 4.86 92.393 92.393 0 0 0-5.11-1.915c-6.94-2.377-16.75-4.825-27.82-4.825s-20.87 2.448-27.82 4.825a91.227 91.227 0 0 0-7 2.718c-.6-.258-1.25-.534-1.95-.824a174.64 174.64 0 0 0-16.19-5.76c-13.02-3.915-30.92-7.587-48.2-5.147-16.87 2.382-29.15 8.38-37.32 13.971a67.7 67.7 0 0 0-7.63 6.033 34.68 34.68 0 0 0-.82-.145c-4.59-.755-11.2-.843-17.99 2.509-6.06 2.994-10.38 7.351-13.1 10.71-.15.183-.29.364-.43.544Z"/><path d="M1467.26 172.432c-6.95 4.599-11.21 9.529-13.74 14-5.3.313-11.48 2.426-17.16 8.068l6.97 7.02-6.97-7.02c-7.5 7.449-7.47 16.225-5.69 22.249.84 2.853 2.06 5.182 3.02 6.755.49.805.94 1.462 1.3 1.945.17.243.33.445.45.604.06.08.12.149.17.207.02.028.04.055.06.078l.03.033.01.016.01.007c0 .003 0 .007 7.69-6.394l-7.69 6.401 3 3.599H2252.43l-1.96-11.656-9.86 1.656c9.86-1.656 9.86-1.659 9.86-1.663v-.008l-.01-.017v-.041c-.01-.031-.01-.067-.02-.11a4.244 4.244 0 0 1-.06-.328c-.05-.265-.13-.623-.22-1.065-.19-.883-.48-2.107-.9-3.603a87.818 87.818 0 0 0-4.22-11.776c-4.1-9.307-11.25-21.235-23.39-30.872-8-6.355-16.88-9.751-25.14-11.376a71.01 71.01 0 0 0-4.15-5.884c-4.04-5.164-10.8-12.278-19.94-15.301-8.03-2.658-15.35-2.647-20.62-1.992-1.29.16-2.47.36-3.52.573-2.23-1.602-5.25-3.72-8.74-5.99-7.13-4.652-16.96-10.471-25.86-13.417-20.06-6.637-37.91-8.395-50.8-8.485-4.84-.035-9 .167-12.33.436a83.619 83.619 0 0 0-2.83-6.704c-4.15-8.733-11.3-19.895-23.27-29.4-11.9-9.448-22.97-13.255-31.46-14.55a49.486 49.486 0 0 0-6.58-.57 47.339 47.339 0 0 0-3.62-4.969c-5.36-6.433-14.15-13.706-28.2-18.939-18.94-7.05-34.74-5.978-46.01-2.872a62.311 62.311 0 0 0-9.57 3.488 46.002 46.002 0 0 0-5.21-4.533c-7.84-5.872-19.77-10.948-36.11-9.146-18.68 2.06-30.32 8.51-37.39 15.497a38 38 0 0 0-3.81 4.354c-1.7-.54-3.61-1.08-5.73-1.587-9.53-2.269-23.32-3.82-41.31-1.588-18.65 2.314-32.73 9.276-42.17 15.722a84.685 84.685 0 0 0-9.01 7.061c-2.39-.89-5.29-1.75-8.7-2.385-10.26-1.91-24.68-1.703-43.08 5.145-19.46 7.246-29.72 19.637-34.92 30.6a55.77 55.77 0 0 0-3.87 11.014c-5.05.721-11.83 2.276-19.41 5.582-14.36 6.26-31.05 18.569-44.23 42.155-26.93-6.119-45.34-2.149-57.59 5.145-5.67 3.376-9.7 7.285-12.47 10.716-.57-.155-1.15-.301-1.76-.435-6.58-1.452-15.84-1.501-24.98 4.55ZM2650.39 220l-8.27-5.624L2631.49 230H3348.16l-2.54-12.062-9.79 2.062c9.79-2.062 9.79-2.064 9.79-2.065v-.014l-.01-.028-.02-.086c-.01-.072-.04-.171-.06-.296-.03-.126-.07-.279-.11-.458-.04-.174-.08-.373-.13-.594-.21-.896-.52-2.17-.92-3.734-.81-3.122-2.03-7.442-3.65-12.256-3.14-9.305-8.21-21.706-15.6-30.477-8.93-10.589-21.77-12.631-30.6-12.631-3.03 0-5.84.238-8.24.552-1.51-2.698-3.48-5.927-5.89-9.193-5.57-7.551-15.85-18.585-30.24-18.585-11.84 0-21.43 4.672-27.79 8.983-.48.322-.94.644-1.38.964-3.29-4.054-7.64-9.122-12.66-14.22-5.63-5.726-12.32-11.727-19.48-16.358-7-4.529-15.45-8.411-24.37-8.411-14.18 0-26.38 4.189-34.88 8.226-.39.181-.76.361-1.13.542-2.1-5.876-5.6-12.827-11.42-19.734-7.23-8.577-14.74-13.162-20.8-15.56a40.122 40.122 0 0 0-2.94-1.035c-.08-.337-.18-.683-.27-1.039-1.28-4.682-3.42-11.052-6.89-17.736-6.91-13.31-19.68-28.901-42.13-33.34-23.7-4.687-42.34 9.614-53.71 22.148-5.89 6.487-10.46 13.151-13.54 18.148-.15.239-.29.474-.43.706a92.11 92.11 0 0 0-12.15-2.934c-11.87-2.01-28.38-2.26-43.49 6.704-14.95 8.864-23.67 23.898-28.6 35.574-1.97 4.675-3.42 9.03-4.46 12.606-3.22-.323-7.14-.571-11.57-.571-12.46 0-29.33 1.962-46.36 10.042-18.15 8.614-30.14 25.37-37.4 38.757-2.27 4.186-4.15 8.18-5.66 11.71-6.32-3.964-15.26-7.87-26.09-7.87-13.18 0-23.27 7.726-29.32 13.879a70.04 70.04 0 0 0-5.49 6.328c-2.13-.559-4.65-1.185-7.44-1.812-8.31-1.87-19.52-3.874-29.8-3.874-7.15 0-13.67 2.786-18.93 6.016-5.35 3.281-10.16 7.496-14.1 11.447-3.97 3.985-7.27 7.932-9.57 10.864a113.297 113.297 0 0 0-2.72 3.596c-.32.442-.58.798-.75 1.051-.09.127-.16.229-.22.303l-.06.092-.02.03-.01.011v.004c0 .002 0 .004 8.27 5.628Z"/></g></svg>