<svg width="103" height="103" fill="none" xmlns="http://www.w3.org/2000/svg" xmlns:xlink="http://www.w3.org/1999/xlink"><mask id="a" style="mask-type:alpha" maskUnits="userSpaceOnUse" x="0" y="0" width="102" height="102"><path d="M102 .998688H.999512L102 101.999V.998688Z" fill="#D9D9D9"/></mask><g mask="url(#a)"><path d="M.999512.998688 102 .998683V101.999H.999516L.999512.998688Z" fill="#842000"/><path d="M.999512.998688 102 .998683V101.999H.999516L.999512.998688Z" fill="url(#b)" fill-opacity=".2" style="mix-blend-mode:darken"/><path d="M.999515 79.0915H102v22.9075H.999516L.999515 79.0915Z" fill="url(#c)" fill-opacity=".64"/></g><mask id="d" style="mask-type:alpha" maskUnits="userSpaceOnUse" x="0" y="1" width="102" height="101"><path d="M.999708 102 .999695.999983 102 102H.999708Z" fill="#D9D9D9"/></mask><g mask="url(#d)"><path d="M.999695.999985.999704 102H102V.999976L.999695.999985Z" fill="#842000"/><path d="M.999695.999985.999704 102H102V.999976L.999695.999985Z" fill="url(#e)" fill-opacity=".2" style="mix-blend-mode:darken"/><path d="M79.0925.999978V102H102V.999976L79.0925.999978Z" fill="url(#f)" fill-opacity=".64"/></g><path d="M1 .999985 102 102" stroke="url(#g)" stroke-width="2"/><defs><pattern id="b" patternContentUnits="objectBoundingBox" width="10.1386" height="10.1386"><use xlink:href="#h" transform="scale(.0099)"/></pattern><pattern id="e" patternContentUnits="objectBoundingBox" width="10.1386" height="10.1386"><use xlink:href="#h" transform="scale(.0099)"/></pattern><linearGradient id="c" x1="51.4995" y1="101.999" x2="51.4995" y2="79.0915" gradientUnits="userSpaceOnUse"><stop offset=".182"/><stop offset=".572" stop-color="#402805"/><stop offset=".712" stop-color="#842000"/></linearGradient><linearGradient id="f" x1="102" y1="51.5" x2="79.0925" y2="51.5" gradientUnits="userSpaceOnUse"><stop offset=".182"/><stop offset=".572" stop-color="#402805"/><stop offset=".712" stop-color="#842000"/></linearGradient><linearGradient id="g" x1="1.194" y1=".999985" x2="101.806" y2="102" gradientUnits="userSpaceOnUse"><stop offset=".825" stop-color="#8F5603"/><stop offset=".907" stop-color="#291801"/></linearGradient></defs></svg>