<svg width="512" height="512" viewBox="0 0 512 512" fill="none" xmlns="http://www.w3.org/2000/svg">
<circle cx="256" cy="256" r="256" fill="#F7ECB3"/>
<path d="M165.125 43.7147C168.525 39.1811 186.66 25.5818 227.464 13.115C268.267 0.648149 287.536 2.91479 296.603 4.0484C305.67 5.18202 323.805 15.3819 315.871 23.3149C307.937 31.2478 300.003 21.0479 290.936 28.9815C281.868 36.915 287.536 55.0476 296.603 53.9146C305.67 52.7816 302.27 49.381 310.204 43.7147C318.138 38.0484 334.006 40.3144 348.741 43.7147C363.475 47.1149 380.477 53.9146 396.345 67.5145C412.213 81.1143 409.946 78.848 415.613 87.9143C421.28 96.9805 422.414 104.914 421.28 113.981C420.147 123.047 412.213 132.114 415.613 136.647C419.014 141.181 420.147 140.047 432.615 143.447C445.083 146.847 463.217 164.98 463.217 164.98C463.217 164.98 482.486 189.914 483.619 196.713C484.753 203.513 482.486 202.38 476.819 200.113C471.151 197.847 459.817 184.246 457.55 187.647C455.283 191.047 457.55 204.646 457.55 204.646C457.55 204.646 454.15 219.38 450.75 223.913C447.349 228.446 441.682 232.98 441.682 232.98C441.682 232.98 438.282 239.779 441.682 244.313C445.083 248.846 459.817 252.246 463.217 259.046C466.618 265.846 457.55 278.313 457.55 282.846C457.55 287.379 462.084 294.179 463.217 299.846C464.351 305.512 457.55 322.512 457.55 322.512C457.55 322.512 451.883 327.046 457.55 337.245C463.217 347.445 458.684 361.045 457.55 364.445C456.417 367.845 449.616 376.911 441.682 379.178C433.748 381.445 436.015 381.444 415.613 379.178C395.212 376.912 382.744 368.978 378.21 367.845C373.676 366.712 368.009 376.912 363.475 376.912C358.942 376.912 354.408 364.445 354.408 364.445C354.408 364.445 348.741 354.245 354.408 347.445C360.075 340.645 371.41 340.645 382.744 347.445C394.078 354.245 395.212 364.445 399.745 364.445C404.279 364.445 409.946 346.312 415.613 340.645C421.28 334.978 423.547 334.979 423.547 324.779C423.547 314.579 420.147 300.979 415.613 299.846C411.08 298.712 413.346 305.513 400.879 310.046C388.411 314.579 382.744 307.779 382.744 299.846C382.744 291.912 381.61 288.513 372.543 274.912C363.475 261.312 382.744 259.046 382.744 259.046C382.744 259.046 392.945 247.713 392.945 237.513C392.945 227.313 390.678 223.913 382.744 223.913C374.81 223.913 372.543 236.38 363.475 232.98C354.408 229.579 351.008 204.646 351.008 204.646C351.008 204.646 344.207 189.914 338.54 187.647C332.873 185.38 323.805 188.78 322.672 196.713C321.539 204.646 335.14 229.58 329.473 232.98C323.805 236.379 311.338 229.58 310.204 223.913C309.071 218.246 305.67 204.646 301.137 204.646C296.603 204.646 289.802 209.18 285.269 204.646C280.735 200.113 271.668 178.58 266 177.447C260.333 176.313 247.865 189.913 248.999 196.713C250.132 203.513 271.668 204.646 271.668 204.646C271.668 204.646 280.735 219.38 277.335 223.913C273.934 228.446 268.267 227.313 266 232.98C263.734 238.646 273.934 249.979 271.668 253.379C269.401 256.78 254.666 259.046 254.666 259.046C254.666 259.046 244.465 264.713 241.065 268.113C237.665 271.513 234.264 282.846 228.597 286.246C222.93 289.645 217.263 289.646 211.596 286.246C205.929 282.845 199.128 271.513 195.728 259.046C192.327 246.579 194.594 237.513 186.66 232.98C178.726 228.447 169.659 227.313 165.125 232.98C160.591 238.646 156.058 240.913 150.39 240.913C144.723 240.913 136.789 229.58 133.389 223.913C129.989 218.246 131.122 200.113 133.389 196.713C135.656 193.313 144.723 186.514 149.257 187.647C153.791 188.78 159.458 200.113 165.125 196.713C170.792 193.314 174.192 170.647 174.192 164.98C174.192 159.313 159.458 157.047 154.924 155.914C150.39 154.78 142.456 164.98 139.056 164.98C135.656 164.98 131.122 151.381 131.122 144.581C131.122 137.781 132.256 111.714 139.056 98.1142C145.857 84.5146 162.858 78.848 165.125 72.0477C167.392 65.2475 161.725 48.2483 165.125 43.7147Z" fill="#E7DEAD"/>
</svg>
