<svg width="164" height="164" fill="none" xmlns="http://www.w3.org/2000/svg"><circle cx="82" cy="82" r="82" fill="#e6c563"/><path d="M52.8916 14.0024c1.0891-1.4522 6.898-5.80822 19.9678-9.80151C85.9293.207611 92.1012.933644 95.0056 1.29676c2.9044.36311 8.7134 3.63026 6.1724 6.17129-2.5419 2.54105-5.0832-.72613-7.9876 1.81509-2.9045 2.54126-1.0892 8.34926 1.8152 7.98636 2.9044-.3629 1.8153-1.4521 4.3567-3.2671 2.5417-1.815 7.6237-1.0892 12.3437 0 4.72 1.0891 10.165 3.2671 15.248 7.6233s4.357 3.6303 6.172 6.5343c1.815 2.9041 2.178 5.4454 1.815 8.3494-.363 2.9041-2.904 5.8082-1.815 7.2604 1.089 1.4521 1.452 1.0889 5.446 2.1781 3.993 1.0891 9.802 6.8973 9.802 6.8973s6.172 7.9865 6.535 10.1645c.363 2.178-.363 1.8153-2.178 1.0891-1.815-.7261-5.446-5.0824-6.172-3.9932-.726 1.0891 0 5.4452 0 5.4452s-1.089 4.7193-2.178 6.1713-2.905 2.9042-2.905 2.9042-1.089 2.178 0 3.6301c1.089 1.4522 5.809 2.541 6.898 4.7192 1.089 2.1782-1.815 6.1714-1.815 7.6235 0 1.4521 1.452 3.63 1.815 5.4452.363 1.8151-1.815 7.2607-1.815 7.2607s-1.815 1.452 0 4.719c1.815 3.267.363 7.623 0 8.712-.363 1.089-2.541 3.993-5.083 4.719-2.541.727-1.815.726-8.35 0-6.535-.725-10.528-3.267-11.981-3.63-1.452-.363-3.267 2.905-4.719 2.905-1.453 0-2.905-3.994-2.905-3.994s-1.815-3.267 0-5.445c1.816-2.178 5.446-2.178 9.077 0 3.63 2.178 3.993 5.445 5.445 5.445 1.453 0 3.268-5.808 5.083-7.623 1.815-1.815 2.541-1.815 2.541-5.082s-1.089-7.6236-2.541-7.9867c-1.452-.3632-.726 1.8152-4.72 3.2672-3.993 1.4515-5.808-.726-5.808-3.2672 0-2.5413-.363-3.6301-3.268-7.9864-2.904-4.3563 3.268-5.0823 3.268-5.0823s3.267-3.6299 3.267-6.8972c0-3.2672-.726-4.3563-3.267-4.3563-2.542 0-3.268 3.9933-6.172 2.9042-2.905-1.0892-3.994-9.0755-3.994-9.0755s-2.178-4.7191-3.993-5.4452c-1.816-.7262-4.72.363-5.083 2.9041-.363 2.5411 3.993 10.5276 2.178 11.6166-1.815 1.0889-5.8087-1.089-6.1717-2.9042-.3631-1.8152-1.4523-6.1713-2.9045-6.1713-1.4522 0-3.6305 1.4522-5.0827 0-1.4522-1.4521-4.3566-8.3493-6.1719-8.7124-1.8152-.3631-5.8088 3.9931-5.4458 6.1713.3631 2.1782 7.2611 2.5411 7.2611 2.5411s2.9044 4.7193 1.8152 6.1713c-1.0891 1.452-2.9044 1.089-3.6305 2.9042-.7261 1.8151 2.5414 5.4451 1.8153 6.5343-.7261 1.0891-5.4458 1.815-5.4458 1.815s-3.2675 1.8152-4.3566 2.9043c-1.0892 1.089-2.1783 4.7192-3.9936 5.8082-1.8153 1.0889-3.6305 1.0891-5.4458 0-1.8153-1.0892-3.9936-4.7192-5.0827-8.7125-1.0892-3.9932-.3631-6.8974-2.9044-8.3493-2.5414-1.452-5.4458-1.815-6.898 0-1.4522 1.8149-2.9045 2.5413-4.7197 2.5412-1.8153-.0001-4.3566-3.6302-5.4458-5.4454-1.0892-1.8152-.7261-7.6233 0-8.7124.7261-1.0891 3.6305-3.2671 5.0827-2.9041 1.4522.3629 3.2675 3.9931 5.0828 2.9041 1.8152-1.089 2.9044-8.3493 2.9044-10.1645 0-1.8152-4.7197-2.541-6.1719-2.9041-1.4522-.3631-3.9936 2.9041-5.0827 2.9041-1.0892 0-2.5414-4.3561-2.5414-6.5342 0-2.1781.3631-10.5277 2.5414-14.8838 2.1783-4.3561 7.6241-6.1712 8.3502-8.3494.7261-2.1782-1.0892-7.6233 0-9.0754Z" fill="#d1b256"/></svg>