<svg xmlns="http://www.w3.org/2000/svg" width="164" height="164" fill="none"><circle cx="82" cy="82" r="82" fill="#FFEB80"/><path fill="#DECE7B" d="M52.892 14.002c1.089-1.452 6.898-5.808 19.967-9.801C85.93.208 92.101.934 95.006 1.297s8.713 3.63 6.172 6.171c-2.542 2.541-5.083-.726-7.988 1.815-2.904 2.541-1.089 8.35 1.816 7.987 2.904-.363 1.815-1.453 4.356-3.268s7.624-1.089 12.344 0c4.72 1.09 10.165 3.268 15.248 7.624s4.357 3.63 6.172 6.534 2.178 5.445 1.815 8.35-2.904 5.808-1.815 7.26 1.452 1.089 5.446 2.178 9.802 6.897 9.802 6.897 6.172 7.987 6.535 10.165-.363 1.815-2.178 1.089-5.446-5.083-6.172-3.993c-.726 1.089 0 5.445 0 5.445s-1.089 4.72-2.178 6.171-2.905 2.904-2.905 2.904-1.089 2.178 0 3.63c1.089 1.453 5.809 2.541 6.898 4.72s-1.815 6.171-1.815 7.623 1.452 3.63 1.815 5.445-1.815 7.261-1.815 7.261-1.815 1.452 0 4.719.363 7.623 0 8.712-2.541 3.993-5.083 4.719c-2.541.727-1.815.726-8.35 0-6.535-.725-10.528-3.267-11.981-3.63s-3.267 2.905-4.719 2.905-2.905-3.994-2.905-3.994-1.815-3.267 0-5.445c1.816-2.178 5.446-2.178 9.077 0 3.63 2.178 3.993 5.445 5.445 5.445s3.268-5.808 5.083-7.623 2.541-1.815 2.541-5.082-1.089-7.624-2.541-7.987-.726 1.815-4.72 3.267-5.808-.726-5.808-3.267-.363-3.63-3.268-7.986 3.268-5.082 3.268-5.082 3.267-3.63 3.267-6.898-.726-4.356-3.267-4.356-3.268 3.993-6.172 2.904-3.994-9.075-3.994-9.075-2.178-4.72-3.993-5.445c-1.816-.727-4.72.363-5.083 2.904s3.993 10.527 2.178 11.616-5.809-1.089-6.172-2.904-1.452-6.171-2.904-6.171-3.63 1.452-5.083 0c-1.452-1.452-4.356-8.35-6.172-8.713s-5.809 3.993-5.446 6.172 7.262 2.54 7.262 2.54 2.904 4.72 1.815 6.172c-1.09 1.452-2.905 1.09-3.63 2.904-.727 1.815 2.54 5.445 1.815 6.535-.727 1.089-5.446 1.815-5.446 1.815s-3.268 1.815-4.357 2.904-2.178 4.72-3.993 5.808q-2.724 1.634-5.446 0c-1.816-1.09-3.994-4.72-5.083-8.712-1.09-3.994-.363-6.898-2.904-8.35s-5.446-1.815-6.898 0c-1.453 1.815-2.905 2.542-4.72 2.541s-4.357-3.63-5.446-5.445c-1.09-1.815-.726-7.623 0-8.712.726-1.09 3.63-3.267 5.083-2.904 1.452.362 3.267 3.993 5.083 2.904 1.815-1.09 2.904-8.35 2.904-10.165s-4.72-2.54-6.172-2.904-3.994 2.904-5.083 2.904S42 48.49 42 46.311s.363-10.528 2.541-14.884 7.624-6.171 8.35-8.35c.727-2.177-1.089-7.623 0-9.075"/></svg>