<svg width="16" height="15" fill="none" xmlns="http://www.w3.org/2000/svg"><path d="M7.04894.92705c.29936-.92131 1.60276-.92131 1.90212 0l1.06954 3.2918c.1339.41202.5179.69098.9511.69098h3.4612c.9687 0 1.3715 1.23962.5878 1.80902l-2.8002 2.03444c-.3505.25464-.4971.70601-.3633 1.11803l1.0696 3.29178c.2993.9213-.7551 1.6875-1.5388 1.1181l-2.80021-2.0345c-.35049-.2546-.82509-.2546-1.17558 0l-2.80017 2.0345c-.78371.5694-1.83819-.1968-1.53884-1.1181l1.06957-3.29178c.13388-.41202-.01278-.86339-.36327-1.11803L.979333 6.71885c-.783714-.5694-.380938-1.80902.587787-1.80902h3.4612c.43322 0 .81718-.27896.95105-.69098L7.04894.92705Z" fill="#D9D9D9"/></svg>